# xmcd
#
# Track frame offsets:
#	150
#	11597
#	24398
#	38255
#	55188
#	71986
#	85954
#	106264
#	123634
#	136713
#	149518
#	162785
#	178928
#	192258
#	209908
#	223688
#	238761
#	254497
#	268038
#	281438
#
# Disc length: 3913 seconds
#
# Revision: 0
# Processed by: cddbd v1.5.1PL0 Copyright (c) Steve Scherf et al.
# Submitted via: dBpowerAMP V4.0
#
DISCID=300f4714
DTITLE=Gilberto and Gilmar - AS 20 Mais
DYEAR=1900
DGENRE=Sertanejo
TTITLE0=Assino Com X
TTITLE1=Cabocla Tereza
TTITLE2=Capa de Revista
TTITLE3=Mais que Paixão
TTITLE4=Eu Sempre Vou Lembrar de Você
TTITLE5=Saudade
TTITLE6=O Mais Importante é o Verdadeiro Amor
TTITLE7=Deus Me Livre
TTITLE8=O Abajur
TTITLE9=Música da Saudade
TTITLE10=Só Mais Uma Vez
TTITLE11=Dale, Dale Gol
TTITLE12=Fuscão Preto
TTITLE13=Tá Ruim Mas Tá Bom
TTITLE14=O Peito do Pedro é Preto
TTITLE15=Quebrando Tudo
TTITLE16=Maria Thcá Tchá Tchá
TTITLE17=Nóis é Jeca Mais é Jóia
TTITLE18=Pé de Lã
TTITLE19=Só Tô o Pó
EXTD=
EXTT0=
EXTT1=
EXTT2=
EXTT3=
EXTT4=
EXTT5=
EXTT6=
EXTT7=
EXTT8=
EXTT9=
EXTT10=
EXTT11=
EXTT12=
EXTT13=
EXTT14=
EXTT15=
EXTT16=
EXTT17=
EXTT18=
EXTT19=
PLAYORDER=
